# xmcd
#
# Track frame offsets:
#  150
#  14092
#  26394
#  37901
#  51808
#  70813
#  82841
#  92630
#  104941
#  119201
#  134961
#  147266
#  157776
#  172591
#
# Disc length: 2479 seconds
#
# Revision: 0
# Processed by: cddbd v1.5.1PL2 Copyright (c) Steve Scherf et al.
# Submitted via: Collectorz.com_Music_Collector 6.11
#
DISCID=bc09ad0e
DTITLE=Bluegrass Parkway - Country Blues
DYEAR=1900
DGENRE=Bluegrass
TTITLE0=B. Dylan and H Springs - Walk Out In The Rain
TTITLE1=Don Sessions and Eddie Miller - Thanks A Lot
TTITLE2=Kathy Kallick - Call Me A Taxi
TTITLE3=J Yellen and G L Cobb - Alabama Jubilee
TTITLE4=Carter Stanley - Beautiful Star
TTITLE5=Traditional - Country Blues
TTITLE6=LeRoy Mack - I Might Take You Back Again
TTITLE7=Traditional - Cripple Creek
TTITLE8=Paul Duff - Maria's Eyes
TTITLE9=Charles H Page - He Said If I Be Lifted Up
TTITLE10=LeRoy Mack and Buck Graves - If You're Ever Gonna Love Me
TTITLE11=John Pennell - Love You In Vain
TTITLE12=Pat Enright - Who's That Knocking At My Door
TTITLE13=Sting - Every Breath You Take
EXTD=
EXTT0=
EXTT1=
EXTT2=
EXTT3=
EXTT4=
EXTT5=
EXTT6=
EXTT7=
EXTT8=
EXTT9=
EXTT10=
EXTT11=
EXTT12=
EXTT13=
PLAYORDER=
